<mxfile host="app.diagrams.net" agent="Mozilla/5.0 (Linux; Android 10; K) AppleWebKit/537.36 (KHTML, like Gecko) Chrome/127.0.0.0 Mobile Safari/537.36" version="24.7.7">
  <diagram id="3228e29e-7158-1315-38df-8450db1d8a1d" name="Page-1">
    <mxGraphModel dx="1408" dy="748" grid="1" gridSize="10" guides="1" tooltips="1" connect="1" arrows="1" fold="1" page="1" pageScale="1" pageWidth="1169" pageHeight="827" background="none" math="0" shadow="0">
      <root>
        <mxCell id="0" />
        <mxCell id="1" parent="0" />
        <mxCell id="21565" value="" style="ellipse;whiteSpace=wrap;html=1;rounded=1;shadow=0;labelBackgroundColor=none;strokeColor=#e85642;strokeWidth=3;fillColor=#e85642;fontFamily=Helvetica;fontSize=14;fontColor=#2F5B7C;align=center;opacity=30;rotation=-145;" parent="1" vertex="1">
          <mxGeometry x="337.5" y="212" width="440" height="190" as="geometry" />
        </mxCell>
        <mxCell id="21566" value="" style="ellipse;whiteSpace=wrap;html=1;rounded=1;shadow=0;labelBackgroundColor=none;strokeColor=#12aab5;strokeWidth=3;fillColor=#12aab5;fontFamily=Helvetica;fontSize=14;fontColor=#2F5B7C;align=center;opacity=30;rotation=142;" parent="1" vertex="1">
          <mxGeometry x="300.5" y="305" width="440" height="190" as="geometry" />
        </mxCell>
        <mxCell id="21567" value="" style="ellipse;whiteSpace=wrap;html=1;rounded=1;shadow=0;labelBackgroundColor=none;strokeColor=#1699d3;strokeWidth=3;fillColor=#1699d3;fontFamily=Helvetica;fontSize=14;fontColor=#2F5B7C;align=center;opacity=30;rotation=74;" parent="1" vertex="1">
          <mxGeometry x="350.5" y="367" width="440" height="190" as="geometry" />
        </mxCell>
        <mxCell id="21568" value="" style="ellipse;whiteSpace=wrap;html=1;rounded=1;shadow=0;labelBackgroundColor=none;strokeColor=#F08705;strokeWidth=3;fillColor=#F08705;fontFamily=Helvetica;fontSize=14;fontColor=#2F5B7C;align=center;opacity=30;rotation=-75;" parent="1" vertex="1">
          <mxGeometry x="419.5" y="243" width="440" height="190" as="geometry" />
        </mxCell>
        <mxCell id="21569" value="" style="ellipse;whiteSpace=wrap;html=1;rounded=1;shadow=0;labelBackgroundColor=none;strokeColor=#736ca8;strokeWidth=3;fillColor=#736ca8;fontFamily=Helvetica;fontSize=14;fontColor=#2F5B7C;align=center;opacity=30;rotation=-3;" parent="1" vertex="1">
          <mxGeometry x="428.5" y="309" width="440" height="190" as="geometry" />
        </mxCell>
        <mxCell id="21570" value="#1" style="text;html=1;strokeColor=none;fillColor=none;align=center;verticalAlign=middle;whiteSpace=wrap;rounded=0;shadow=0;labelBackgroundColor=none;fontFamily=Helvetica;fontSize=14;fontColor=#2F5B7C;" parent="1" vertex="1">
          <mxGeometry x="379.5" y="189" width="40" height="20" as="geometry" />
        </mxCell>
        <mxCell id="21571" value="#2" style="text;html=1;strokeColor=none;fillColor=none;align=center;verticalAlign=middle;whiteSpace=wrap;rounded=0;shadow=0;labelBackgroundColor=none;fontFamily=Helvetica;fontSize=14;fontColor=#2F5B7C;" parent="1" vertex="1">
          <mxGeometry x="667.5" y="139" width="40" height="20" as="geometry" />
        </mxCell>
        <mxCell id="21572" value="#3" style="text;html=1;strokeColor=none;fillColor=none;align=center;verticalAlign=middle;whiteSpace=wrap;rounded=0;shadow=0;labelBackgroundColor=none;fontFamily=Helvetica;fontSize=14;fontColor=#2F5B7C;" parent="1" vertex="1">
          <mxGeometry x="827.5" y="384" width="40" height="20" as="geometry" />
        </mxCell>
        <mxCell id="21573" value="#4" style="text;html=1;strokeColor=none;fillColor=none;align=center;verticalAlign=middle;whiteSpace=wrap;rounded=0;shadow=0;labelBackgroundColor=none;fontFamily=Helvetica;fontSize=14;fontColor=#2F5B7C;" parent="1" vertex="1">
          <mxGeometry x="595.5" y="647" width="40" height="20" as="geometry" />
        </mxCell>
        <mxCell id="21574" value="#5" style="text;html=1;strokeColor=none;fillColor=none;align=center;verticalAlign=middle;whiteSpace=wrap;rounded=0;shadow=0;labelBackgroundColor=none;fontFamily=Helvetica;fontSize=14;fontColor=#2F5B7C;" parent="1" vertex="1">
          <mxGeometry x="347.5" y="509" width="40" height="20" as="geometry" />
        </mxCell>
        <mxCell id="21575" value="14" style="text;html=1;strokeColor=none;fillColor=none;align=center;verticalAlign=middle;whiteSpace=wrap;rounded=0;shadow=0;labelBackgroundColor=none;fontFamily=Helvetica;fontSize=14;fontColor=#2F5B7C;" parent="1" vertex="1">
          <mxGeometry x="487.5" y="259" width="40" height="20" as="geometry" />
        </mxCell>
        <mxCell id="21576" value="42" style="text;html=1;strokeColor=none;fillColor=none;align=center;verticalAlign=middle;whiteSpace=wrap;rounded=0;shadow=0;labelBackgroundColor=none;fontFamily=Helvetica;fontSize=14;fontColor=#2F5B7C;" parent="1" vertex="1">
          <mxGeometry x="575.5" y="519" width="40" height="20" as="geometry" />
        </mxCell>
        <mxCell id="21577" value="53" style="text;html=1;strokeColor=none;fillColor=none;align=center;verticalAlign=middle;whiteSpace=wrap;rounded=0;shadow=0;labelBackgroundColor=none;fontFamily=Helvetica;fontSize=14;fontColor=#2F5B7C;" parent="1" vertex="1">
          <mxGeometry x="428.5" y="404" width="40" height="20" as="geometry" />
        </mxCell>
        <mxCell id="21578" value="453" style="text;html=1;strokeColor=none;fillColor=none;align=center;verticalAlign=middle;whiteSpace=wrap;rounded=0;shadow=0;labelBackgroundColor=none;fontFamily=Helvetica;fontSize=14;fontColor=#2F5B7C;" parent="1" vertex="1">
          <mxGeometry x="477.5" y="413" width="40" height="20" as="geometry" />
        </mxCell>
        <mxCell id="21579" value="541" style="text;html=1;strokeColor=none;fillColor=none;align=center;verticalAlign=middle;whiteSpace=wrap;rounded=0;shadow=0;labelBackgroundColor=none;fontFamily=Helvetica;fontSize=14;fontColor=#2F5B7C;" parent="1" vertex="1">
          <mxGeometry x="497.5" y="297" width="40" height="20" as="geometry" />
        </mxCell>
        <mxCell id="21580" value="153" style="text;html=1;strokeColor=none;fillColor=none;align=center;verticalAlign=middle;whiteSpace=wrap;rounded=0;shadow=0;labelBackgroundColor=none;fontFamily=Helvetica;fontSize=14;fontColor=#2F5B7C;" parent="1" vertex="1">
          <mxGeometry x="497.5" y="349" width="40" height="20" as="geometry" />
        </mxCell>
        <mxCell id="21581" value="324" style="text;html=1;strokeColor=none;fillColor=none;align=center;verticalAlign=middle;whiteSpace=wrap;rounded=0;shadow=0;labelBackgroundColor=none;fontFamily=Helvetica;fontSize=14;fontColor=#2F5B7C;" parent="1" vertex="1">
          <mxGeometry x="595.5" y="464" width="40" height="20" as="geometry" />
        </mxCell>
        <mxCell id="21582" value="2345" style="text;html=1;strokeColor=none;fillColor=none;align=center;verticalAlign=middle;whiteSpace=wrap;rounded=0;shadow=0;labelBackgroundColor=none;fontFamily=Helvetica;fontSize=14;fontColor=#2F5B7C;" parent="1" vertex="1">
          <mxGeometry x="537.5" y="444" width="40" height="20" as="geometry" />
        </mxCell>
        <mxCell id="21583" value="13" style="text;html=1;strokeColor=none;fillColor=none;align=center;verticalAlign=middle;whiteSpace=wrap;rounded=0;shadow=0;labelBackgroundColor=none;fontFamily=Helvetica;fontSize=14;fontColor=#2F5B7C;" parent="1" vertex="1">
          <mxGeometry x="707.5" y="404" width="40" height="20" as="geometry" />
        </mxCell>
        <mxCell id="21584" value="1235" style="text;html=1;strokeColor=none;fillColor=none;align=center;verticalAlign=middle;whiteSpace=wrap;rounded=0;shadow=0;labelBackgroundColor=none;fontFamily=Helvetica;fontSize=14;fontColor=#2F5B7C;" parent="1" vertex="1">
          <mxGeometry x="635.5" y="329" width="40" height="20" as="geometry" />
        </mxCell>
        <mxCell id="21585" value="125" style="text;html=1;strokeColor=none;fillColor=none;align=center;verticalAlign=middle;whiteSpace=wrap;rounded=0;shadow=0;labelBackgroundColor=none;fontFamily=Helvetica;fontSize=14;fontColor=#2F5B7C;" parent="1" vertex="1">
          <mxGeometry x="599.5" y="269" width="40" height="20" as="geometry" />
        </mxCell>
        <mxCell id="21586" value="52" style="text;html=1;strokeColor=none;fillColor=none;align=center;verticalAlign=middle;whiteSpace=wrap;rounded=0;shadow=0;labelBackgroundColor=none;fontFamily=Helvetica;fontSize=14;fontColor=#2F5B7C;" parent="1" vertex="1">
          <mxGeometry x="667.5" y="259" width="40" height="20" as="geometry" />
        </mxCell>
        <mxCell id="21587" value="23" style="text;html=1;strokeColor=none;fillColor=none;align=center;verticalAlign=middle;whiteSpace=wrap;rounded=0;shadow=0;labelBackgroundColor=none;fontFamily=Helvetica;fontSize=14;fontColor=#2F5B7C;" parent="1" vertex="1">
          <mxGeometry x="657.5" y="454" width="40" height="20" as="geometry" />
        </mxCell>
        <mxCell id="21588" value="51" style="text;html=1;strokeColor=none;fillColor=none;align=center;verticalAlign=middle;whiteSpace=wrap;rounded=0;shadow=0;labelBackgroundColor=none;fontFamily=Helvetica;fontSize=14;fontColor=#2F5B7C;" parent="1" vertex="1">
          <mxGeometry x="437.5" y="328" width="40" height="20" as="geometry" />
        </mxCell>
        <mxCell id="21589" value="12345" style="text;html=1;strokeColor=none;fillColor=none;align=center;verticalAlign=middle;whiteSpace=wrap;rounded=0;shadow=0;labelBackgroundColor=none;fontFamily=Helvetica;fontSize=14;fontColor=#2F5B7C;" parent="1" vertex="1">
          <mxGeometry x="555.5" y="349" width="40" height="20" as="geometry" />
        </mxCell>
        <mxCell id="21590" value="123" style="text;html=1;strokeColor=none;fillColor=none;align=center;verticalAlign=middle;whiteSpace=wrap;rounded=0;shadow=0;labelBackgroundColor=none;fontFamily=Helvetica;fontSize=14;fontColor=#2F5B7C;" parent="1" vertex="1">
          <mxGeometry x="667.5" y="382" width="40" height="20" as="geometry" />
        </mxCell>
        <mxCell id="21591" value="23" style="text;html=1;strokeColor=none;fillColor=none;align=center;verticalAlign=middle;whiteSpace=wrap;rounded=0;shadow=0;labelBackgroundColor=none;fontFamily=Helvetica;fontSize=14;fontColor=#2F5B7C;" parent="1" vertex="1">
          <mxGeometry x="707.5" y="317" width="40" height="20" as="geometry" />
        </mxCell>
      </root>
    </mxGraphModel>
  </diagram>
</mxfile>
